<?xml version="1.0" standalone="no"?>
<!DOCTYPE svg PUBLIC "-//W3C//DTD SVG 20010904//EN"
 "http://www.w3.org/TR/2001/REC-SVG-20010904/DTD/svg10.dtd">
<svg version="1.0" xmlns="http://www.w3.org/2000/svg"
 width="256.000000pt" height="256.000000pt" viewBox="0 0 256.000000 256.000000"
 preserveAspectRatio="xMidYMid meet">
<metadata>
Created by potrace 1.11, written by Peter Selinger 2001-2013
</metadata>
<g transform="translate(0.000000,256.000000) scale(0.100000,-0.100000)"
fill="#000000" stroke="none">
<path d="M1196 2532 c-2 -4 2 -62 9 -127 8 -66 15 -149 15 -185 0 -161 -83
-273 -191 -256 -25 4 -39 2 -42 -7 -131 -316 -167 -427 -167 -515 0 -84 -21
-205 -42 -239 -13 -23 -29 -34 -53 -39 -112 -21 -188 73 -187 229 1 112 -20
109 -95 -15 -109 -181 -157 -367 -133 -515 6 -42 24 -104 38 -137 25 -61 94
-173 129 -211 44 -49 103 -133 103 -148 0 -25 -43 -21 -103 8 -50 26 -73 29
-59 10 37 -53 304 -254 339 -255 5 -1 26 -9 48 -20 22 -11 47 -19 55 -20 9 0
20 -4 25 -9 6 -4 26 -11 45 -15 l35 -6 -42 28 c-24 15 -43 33 -43 40 0 6 -4
12 -8 12 -8 0 -32 58 -32 78 0 6 -29 49 -65 96 -35 46 -69 94 -74 107 -5 13
-6 71 -4 129 3 58 6 123 7 145 4 88 16 126 44 136 86 30 136 76 173 156 16 35
29 67 29 73 0 6 17 45 37 88 43 90 54 168 30 206 -12 17 -14 32 -8 53 14 44
51 123 85 178 34 56 34 56 73 105 148 184 168 223 168 328 -1 47 3 72 11 72
15 0 122 -114 161 -170 39 -57 94 -174 104 -220 22 -105 22 -107 5 -86 -9 11
-16 15 -16 9 0 -6 -8 -13 -18 -15 -13 -4 -17 -13 -16 -34 1 -16 3 -29 4 -29 5
0 11 -49 15 -118 2 -42 9 -85 14 -95 10 -16 10 -16 11 1 0 11 5 15 11 11 8 -4
9 -28 4 -73 -15 -124 -1 -173 65 -242 27 -28 52 -59 55 -70 4 -10 11 -19 17
-19 5 0 34 -26 64 -57 l53 -58 -6 -70 c-5 -66 -4 -72 22 -103 15 -17 35 -32
44 -32 16 0 17 -6 8 -62 -11 -77 -36 -121 -127 -226 -39 -44 -73 -90 -75 -102
-5 -26 -39 -75 -68 -96 -22 -16 -21 -16 12 -10 78 14 358 169 369 204 3 11 0
12 -16 3 -28 -15 -67 -14 -80 2 -14 17 -2 36 98 147 100 112 125 148 160 223
43 93 57 195 41 309 -21 156 -66 316 -118 420 -13 27 -28 46 -32 43 -5 -2 -12
-29 -15 -59 -4 -31 -16 -66 -27 -80 -37 -47 -129 -43 -164 8 -17 24 -19 114
-5 256 12 119 -2 241 -35 317 -50 113 -198 278 -355 398 -36 27 -67 52 -70 55
-20 22 -223 170 -234 170 -3 0 -7 -4 -10 -8z"/>
<path d="M580 1941 c0 -21 -37 -79 -81 -124 -57 -60 -79 -117 -79 -207 0 -44
3 -80 8 -79 4 1 34 31 68 68 77 85 105 153 112 274 4 76 2 87 -12 87 -9 0 -16
-8 -16 -19z"/>
</g>
</svg>
